<svg xmlns="http://www.w3.org/2000/svg" viewBox="0 0 32 32">
  <path d="M6 8h16v2h3a4 4 0 0 1 0 8h-3v2a4 4 0 0 1-4 4H10a4 4 0 0 1-4-4V8z" fill="#8B6914"/>
  <path d="M22 10h3a2 2 0 0 1 0 4h-3v-4z" fill="#A07D1A"/>
  <path d="M8 10h12v9a3 3 0 0 1-3 3h-6a3 3 0 0 1-3-3v-9z" fill="#C4942A"/>
  <path d="M8 10h12v2H8z" fill="#D4A43A" opacity="0.6"/>
  <path d="M7 26h14a1 1 0 0 1 0 2H7a1 1 0 0 1 0-2z" fill="#8B6914"/>
  <ellipse cx="14" cy="6" rx="2" ry="2" fill="#D4A43A" opacity="0.4"/>
  <ellipse cx="11" cy="5" rx="1.5" ry="1.5" fill="#D4A43A" opacity="0.3"/>
  <ellipse cx="17" cy="5" rx="1.5" ry="1.5" fill="#D4A43A" opacity="0.3"/>
</svg>
